<?xml version="1.0" encoding="UTF-8" standalone="no"?>
<svg
   width="24"
   height="24"
   viewBox="0 0 24 24"
   role="img"
   aria-label="folder icon"
   version="1.1"
   id="svg1"
   sodipodi:docname="PropsFile.svg"
   inkscape:version="1.4.2 (f4327f4, 2025-05-13)"
   xml:space="preserve"
   xmlns:inkscape="http://www.inkscape.org/namespaces/inkscape"
   xmlns:sodipodi="http://sodipodi.sourceforge.net/DTD/sodipodi-0.dtd"
   xmlns="http://www.w3.org/2000/svg"
   xmlns:svg="http://www.w3.org/2000/svg"><defs
     id="defs1" /><sodipodi:namedview
     id="namedview1"
     pagecolor="#505050"
     bordercolor="#eeeeee"
     borderopacity="1"
     inkscape:showpageshadow="0"
     inkscape:pageopacity="0"
     inkscape:pagecheckerboard="0"
     inkscape:deskcolor="#505050"
     inkscape:zoom="8"
     inkscape:cx="-25.25"
     inkscape:cy="-5.4375"
     inkscape:window-width="2560"
     inkscape:window-height="1369"
     inkscape:window-x="-8"
     inkscape:window-y="-8"
     inkscape:window-maximized="1"
     inkscape:current-layer="svg1" /><!-- background (transparent) --><!-- folder body (filled) --><path
     d="m 11.397101,3.5546602 h 5.654692 c 0.662742,0 1.2,0.5372583 1.2,1.1999999 V 19.24534 c 0,0.662742 -0.537258,1.2 -1.2,1.2 H 6.948207 c -0.662742,0 -1.2,-0.537258 -1.2,-1.2 V 8.3649754 Z"
     fill="#4b4d50"
     stroke="#dfe5e9"
     stroke-width="0.8"
     stroke-linejoin="round"
     filter="url(#glow)"
     id="path1"
     sodipodi:nodetypes="csssssscc"
     style="display:none;stroke-width:1;stroke-dasharray:none" /><path
     style="display:none;fill:none;fill-opacity:1;stroke:#dfe5e9;stroke-width:1;stroke-linecap:round;stroke-linejoin:round;stroke-dasharray:none;stroke-opacity:1"
     d="m 5.748207,8.3649754 5.648118,0.010562 7.76e-4,-4.8208776"
     id="path2"
     sodipodi:nodetypes="ccc" /><path
     id="rect5-7"
     style="display:inline;fill:#2b3f64;fill-opacity:1;stroke:#020715;stroke-width:2.55365;stroke-linecap:round;stroke-linejoin:round;stroke-dasharray:none;stroke-opacity:1"
     d="m 17.020763,8.3726852 c -1.477966,0.5106443 -2.53914,1.9145818 -2.53914,3.5661308 0,1.600554 0.996305,2.96853 2.403114,3.516255 v 4.807413 c 0,0.727363 0.585283,1.312645 1.312645,1.312645 0.727363,0 1.312644,-0.585282 1.312644,-1.312645 v -4.766606 c 1.464542,-0.517974 2.514202,-1.915111 2.514202,-3.557062 0,-1.651549 -1.061173,-3.0554867 -2.539139,-3.5661308 v 3.4913168 c 0,0.727363 -0.550649,1.312644 -1.233296,1.312644 -0.682649,0 -1.23103,-0.585281 -1.23103,-1.312644 z"
     inkscape:label="dark-outline"
     sodipodi:nodetypes="cscssscscsssc" /><path
     id="rect5"
     style="fill:#2b3f64;fill-opacity:1;stroke:#5287f1;stroke-width:1.16075;stroke-linecap:round;stroke-linejoin:round;stroke-opacity:1"
     d="m 17.020763,8.3726852 c -1.477966,0.5106443 -2.53914,1.9145818 -2.53914,3.5661308 0,1.600554 0.996305,2.96853 2.403114,3.516255 v 4.807413 c 0,0.727363 0.585283,1.312645 1.312645,1.312645 0.727363,0 1.312644,-0.585282 1.312644,-1.312645 v -4.766606 c 1.464542,-0.517974 2.514202,-1.915111 2.514202,-3.557062 0,-1.651549 -1.061173,-3.0554867 -2.539139,-3.5661308 v 3.4913168 c 0,0.727363 -0.550649,1.312644 -1.233296,1.312644 -0.682649,0 -1.23103,-0.585281 -1.23103,-1.312644 z"
     sodipodi:nodetypes="cscssscscsssc" /></svg>
