<?xml version="1.0" encoding="UTF-8" standalone="no"?>
<svg
   class="mud-icon-root mud-svg-icon mud-icon-size-medium"
   focusable="false"
   viewBox="0 0 24 24"
   aria-hidden="true"
   role="img"
   version="1.1"
   id="svg2"
   sodipodi:docname="SidebarDebug.svg"
   inkscape:version="1.4.2 (f4327f4, 2025-05-13)"
   xmlns:inkscape="http://www.inkscape.org/namespaces/inkscape"
   xmlns:sodipodi="http://sodipodi.sourceforge.net/DTD/sodipodi-0.dtd"
   xmlns="http://www.w3.org/2000/svg"
   xmlns:svg="http://www.w3.org/2000/svg">
  <defs
     id="defs2" />
  <sodipodi:namedview
     id="namedview2"
     pagecolor="#505050"
     bordercolor="#eeeeee"
     borderopacity="1"
     inkscape:showpageshadow="0"
     inkscape:pageopacity="0"
     inkscape:pagecheckerboard="0"
     inkscape:deskcolor="#505050"
     inkscape:zoom="48.625"
     inkscape:cx="12"
     inkscape:cy="12"
     inkscape:window-width="2560"
     inkscape:window-height="1369"
     inkscape:window-x="-8"
     inkscape:window-y="-8"
     inkscape:window-maximized="1"
     inkscape:current-layer="svg2" />
  <path
     d="M0 0h24v24H0V0z"
     fill="none"
     id="path1" />
  <path
     d="M20 8h-2.81c-.45-.78-1.07-1.45-1.82-1.96L17 4.41 15.59 3l-2.17 2.17C12.96 5.06 12.49 5 12 5s-.96.06-1.41.17L8.41 3 7 4.41l1.62 1.63C7.88 6.55 7.26 7.22 6.81 8H4v2h2.09c-.05.33-.09.66-.09 1v1H4v2h2v1c0 .34.04.67.09 1H4v2h2.81c1.04 1.79 2.97 3 5.19 3s4.15-1.21 5.19-3H20v-2h-2.09c.05-.33.09-.66.09-1v-1h2v-2h-2v-1c0-.34-.04-.67-.09-1H20V8zm-4 4v3c0 .22-.03.47-.07.7l-.1.65-.37.65c-.72 1.24-2.04 2-3.46 2s-2.74-.77-3.46-2l-.37-.64-.1-.65C8.03 15.48 8 15.23 8 15v-4c0-.23.03-.48.07-.7l.1-.65.37-.65c.3-.52.72-.97 1.21-1.31l.57-.39.74-.18c.31-.08.63-.12.94-.12.32 0 .63.04.95.12l.68.16.61.42c.5.34.91.78 1.21 1.31l.38.65.1.65c.04.22.07.47.07.69v1zm-6 2h4v2h-4zm0-4h4v2h-4z"
     id="path2"
     style="fill:#bebebe;fill-opacity:1" />
</svg>
