<?xml version="1.0" encoding="UTF-8" standalone="no"?>
<!-- Uploaded to: SVG Repo, www.svgrepo.com, Generator: SVG Repo Mixer Tools -->

<svg
   height="800px"
   width="800px"
   version="1.1"
   id="Capa_1"
   viewBox="0 0 525.325 525.325"
   xml:space="preserve"
   sodipodi:docname="array-element-icon.svg"
   inkscape:version="1.4.2 (f4327f4, 2025-05-13)"
   xmlns:inkscape="http://www.inkscape.org/namespaces/inkscape"
   xmlns:sodipodi="http://sodipodi.sourceforge.net/DTD/sodipodi-0.dtd"
   xmlns="http://www.w3.org/2000/svg"
   xmlns:svg="http://www.w3.org/2000/svg"><defs
   id="defs1"><rect
     x="-189.20309"
     y="237.18938"
     width="346.97466"
     height="348.12239"
     id="rect2" /><rect
     x="-189.20309"
     y="237.18938"
     width="380.90609"
     height="367.90142"
     id="rect2-2" /><rect
     x="-189.20309"
     y="237.18938"
     width="270.38657"
     height="268.04608"
     id="rect2-2-2" /><rect
     x="-189.20309"
     y="237.18938"
     width="253.90559"
     height="267.65643"
     id="rect2-21" /><rect
     x="-189.20309"
     y="237.18938"
     width="270.38657"
     height="268.04608"
     id="rect2-2-8" /><rect
     x="-189.20309"
     y="237.18938"
     width="253.90559"
     height="267.65643"
     id="rect2-9" /><rect
     x="-189.20309"
     y="237.18938"
     width="380.9061"
     height="367.90143"
     id="rect2-2-3" /><rect
     x="-189.20309"
     y="237.18938"
     width="346.97467"
     height="348.12238"
     id="rect2-1" /></defs><sodipodi:namedview
   id="namedview1"
   pagecolor="#505050"
   bordercolor="#eeeeee"
   borderopacity="1"
   inkscape:showpageshadow="0"
   inkscape:pageopacity="0"
   inkscape:pagecheckerboard="0"
   inkscape:deskcolor="#505050"
   inkscape:zoom="0.3646875"
   inkscape:cx="-278.32048"
   inkscape:cy="176.86376"
   inkscape:window-width="2560"
   inkscape:window-height="1369"
   inkscape:window-x="-8"
   inkscape:window-y="-8"
   inkscape:window-maximized="1"
   inkscape:current-layer="g1" />
<g
   id="g1"
   transform="matrix(1.0007541,0,0,0.96334492,-0.19807395,9.6729914)">
	
<rect
   style="fill:#25324d;fill-opacity:1;stroke:#548af7;stroke-width:30.0951;stroke-linecap:round;stroke-linejoin:round;stroke-opacity:1"
   id="rect1"
   width="272.45956"
   height="82.279037"
   x="183.00385"
   y="138.77504"
   rx="2.1590915"
   ry="0" /><rect
   style="fill:#25324d;fill-opacity:1;stroke:#548af7;stroke-width:30.0951;stroke-linecap:round;stroke-linejoin:round;stroke-opacity:1"
   id="rect1-1"
   width="272.45956"
   height="82.279037"
   x="183.00381"
   y="304.17709"
   rx="2.1590915"
   ry="0" /><text
   xml:space="preserve"
   transform="matrix(0.65616144,0,0,0.68164189,171.78506,-86.056659)"
   id="text1"
   style="font-style:normal;font-variant:normal;font-weight:normal;font-stretch:normal;font-size:266.667px;font-family:'Cascadia Mono';-inkscape-font-specification:'Cascadia Mono';text-align:start;letter-spacing:0px;word-spacing:0px;writing-mode:lr-tb;direction:ltr;white-space:pre;shape-inside:url(#rect2);display:none;fill:#cbcdd4;fill-opacity:1;stroke:#cbcdd4;stroke-width:10;stroke-linecap:round;stroke-linejoin:round;stroke-dasharray:none;stroke-opacity:1"><tspan
     x="-189.20312"
     y="483.40824"
     id="tspan2">1</tspan></text><text
   xml:space="preserve"
   transform="matrix(0.65616144,0,0,0.68164189,173.18624,78.298361)"
   id="text1-5"
   style="font-style:normal;font-variant:normal;font-weight:normal;font-stretch:normal;font-size:266.667px;font-family:'Cascadia Mono';-inkscape-font-specification:'Cascadia Mono';text-align:start;letter-spacing:0px;word-spacing:0px;writing-mode:lr-tb;direction:ltr;white-space:pre;shape-inside:url(#rect2-2);display:none;fill:#cbcdd4;fill-opacity:1;stroke:#cbcdd4;stroke-width:10;stroke-linecap:round;stroke-linejoin:round;stroke-dasharray:none;stroke-opacity:1"
   inkscape:label="text2"><tspan
     x="-189.20312"
     y="483.40824"
     id="tspan3">2</tspan></text><path
   d="M -120.19262,483.40824 V 298.51218 h 26.041694 v 184.89606 z m -46.87506,0 v -24.73961 h 49.47923 v 24.73961 z m 70.312585,0 v -24.73961 h 44.531304 v 24.73961 z M -164.46351,340.43932 V 314.1372 l 44.27089,-15.62502 v 26.82295 z"
   id="text1-3"
   style="font-size:266.667px;font-family:'Cascadia Mono';-inkscape-font-specification:'Cascadia Mono';letter-spacing:0px;word-spacing:0px;white-space:pre;fill:#cbcdd4;stroke:#cbcdd4;stroke-width:10;stroke-linecap:round;stroke-linejoin:round"
   transform="matrix(0.65616144,0,0,0.68164189,171.78506,-86.056659)"
   aria-label="1" /><path
   d="m -169.41143,483.40824 v -29.1667 q 42.83859,-23.69795 63.93237,-49.47923 21.22398,-25.78128 21.22398,-53.12506 0,-15.88544 -7.81251,-23.82816 -7.812509,-7.94272 -23.69795,-7.94272 -10.54688,0 -22.00523,6.1198 -11.45835,6.1198 -19.66148,16.27607 l -17.96877,-17.83857 q 8.98438,-12.89064 25.52086,-20.70315 16.53648,-7.81251 34.63546,-7.81251 29.296909,0 43.750052,13.93231 14.583351,13.8021 14.583351,41.79693 0,28.12503 -17.838563,54.03652 -17.708355,25.78128 -54.03652,49.60944 v 28.12503 z m 7.81251,0 v -24.21878 h 112.500133 v 24.21878 z"
   id="text1-5-4"
   style="font-size:266.667px;font-family:'Cascadia Mono';-inkscape-font-specification:'Cascadia Mono';letter-spacing:0px;word-spacing:0px;white-space:pre;fill:#cbcdd4;stroke:#cbcdd4;stroke-width:10;stroke-linecap:round;stroke-linejoin:round"
   inkscape:label="text2"
   transform="matrix(0.65616144,0,0,0.68164189,173.18624,78.298362)"
   aria-label="2" /></g>
</svg>
